<?xml version="1.0" standalone="no"?>
<!DOCTYPE svg PUBLIC "-//W3C//DTD SVG 20010904//EN"
 "http://www.w3.org/TR/2001/REC-SVG-20010904/DTD/svg10.dtd">
<svg version="1.0" xmlns="http://www.w3.org/2000/svg"
 width="79.000000pt" height="79.000000pt" viewBox="0 0 79.000000 79.000000"
 preserveAspectRatio="xMidYMid meet">
<metadata>
Created by potrace 1.11, written by Peter Selinger 2001-2013
</metadata>
<g transform="translate(0.000000,79.000000) scale(0.100000,-0.100000)"
fill="#000000" stroke="none">
<path d="M531 758 c-60 -31 -85 -80 -85 -167 1 -87 25 -134 124 -236 90 -93
100 -110 100 -164 0 -47 -20 -71 -59 -71 -37 0 -54 22 -61 79 l-5 46 -52 0
-53 0 0 -50 c1 -64 28 -125 71 -156 48 -34 159 -35 207 -1 42 30 62 71 69 137
9 90 -15 142 -122 255 -90 96 -105 121 -105 186 0 31 25 54 59 54 34 0 48 -15
56 -60 3 -19 7 -35 8 -36 3 -3 68 -6 91 -5 17 1 18 7 12 53 -13 99 -62 147
-155 155 -45 4 -65 0 -100 -19z"/>
<path d="M3 398 l2 -373 52 -3 51 -3 -1 256 c-1 140 1 255 5 255 4 0 12 -17
17 -37 5 -21 26 -99 46 -173 19 -74 45 -172 56 -217 l21 -83 59 0 c40 0 59 4
60 13 0 6 2 175 2 375 l2 362 -52 0 -53 0 -1 -222 c-1 -252 5 -254 -68 27 -23
88 -44 168 -47 178 -4 14 -18 17 -79 17 l-74 0 2 -372z"/>
</g>
</svg>
